<svg xmlns="http://www.w3.org/2000/svg" xmlns:xlink="http://www.w3.org/1999/xlink" width="220" zoomAndPan="magnify" viewBox="0 0 165 37.5" height="50" preserveAspectRatio="xMidYMid meet" version="1.0"><defs><g/><clipPath id="407bbb5491"><path d="M 66.613281 5.386719 L 73.148438 5.386719 L 73.148438 12 L 66.613281 12 Z M 66.613281 5.386719 " clip-rule="nonzero"/></clipPath><clipPath id="6f6e020cc7"><path d="M 73.136719 7.769531 C 73.0625 10.066406 72.175781 11.398438 71.363281 11.769531 C 70.546875 12.136719 68.992188 11.988281 68.253906 11.621094 C 67.734375 11.398438 67.4375 10.878906 67.144531 10.4375 C 66.847656 9.992188 66.625 9.546875 66.625 8.957031 C 66.699219 8.140625 67.214844 6.734375 67.957031 6.144531 C 68.695312 5.550781 70.175781 5.402344 70.992188 5.550781 C 71.582031 5.625 72.324219 6.363281 72.324219 6.363281 " clip-rule="nonzero"/></clipPath><clipPath id="88e9c5ac31"><path d="M 150.929688 6.589844 L 156.105469 6.589844 L 156.105469 11.960938 L 150.929688 11.960938 Z M 150.929688 6.589844 " clip-rule="nonzero"/></clipPath><clipPath id="1dbf4fca79"><path d="M 156.097656 8.476562 C 156.039062 10.296875 155.335938 11.351562 154.691406 11.644531 C 154.046875 11.9375 152.816406 11.820312 152.230469 11.527344 C 151.820312 11.351562 151.585938 10.941406 151.347656 10.589844 C 151.113281 10.238281 150.9375 9.886719 150.9375 9.417969 C 150.996094 8.769531 151.40625 7.65625 151.996094 7.1875 C 152.582031 6.71875 153.753906 6.601562 154.398438 6.71875 C 154.867188 6.777344 155.453125 7.363281 155.453125 7.363281 " clip-rule="nonzero"/></clipPath><clipPath id="31d1726238"><path d="M 67.992188 13.25 L 71.917969 13.25 L 71.917969 29.847656 L 67.992188 29.847656 Z M 67.992188 13.25 " clip-rule="nonzero"/></clipPath></defs><g fill="#ffffff" fill-opacity="1"><g transform="translate(7.885485, 29.703925)"><g><path d="M 2.3125 0 L 2.3125 -22.09375 L 6.609375 -22.09375 L 6.609375 -11.59375 L 15.890625 -22.125 L 20.640625 -22.125 L 12.15625 -12.3125 L 21.171875 0 L 16.328125 0 L 9.4375 -9.5625 L 6.609375 -6.609375 L 6.609375 0 Z M 2.3125 0 "/></g></g></g><g fill="#ffffff" fill-opacity="1"><g transform="translate(28.735915, 29.703925)"><g><path d="M 9.4375 0.3125 C 8.113281 0.3125 6.921875 0.0820312 5.859375 -0.375 C 4.796875 -0.832031 3.894531 -1.445312 3.15625 -2.21875 C 2.425781 -3 1.863281 -3.898438 1.46875 -4.921875 C 1.070312 -5.941406 0.875 -7.015625 0.875 -8.140625 C 0.875 -9.273438 1.070312 -10.351562 1.46875 -11.375 C 1.863281 -12.394531 2.425781 -13.296875 3.15625 -14.078125 C 3.894531 -14.859375 4.796875 -15.472656 5.859375 -15.921875 C 6.921875 -16.378906 8.113281 -16.609375 9.4375 -16.609375 C 10.769531 -16.609375 11.960938 -16.378906 13.015625 -15.921875 C 14.066406 -15.472656 14.957031 -14.859375 15.6875 -14.078125 C 16.425781 -13.296875 16.992188 -12.394531 17.390625 -11.375 C 17.785156 -10.351562 17.984375 -9.273438 17.984375 -8.140625 C 17.984375 -7.015625 17.785156 -5.941406 17.390625 -4.921875 C 16.992188 -3.898438 16.429688 -3 15.703125 -2.21875 C 14.984375 -1.445312 14.09375 -0.832031 13.03125 -0.375 C 11.96875 0.0820312 10.769531 0.3125 9.4375 0.3125 Z M 5.171875 -8.140625 C 5.171875 -7.410156 5.28125 -6.75 5.5 -6.15625 C 5.71875 -5.5625 6.019531 -5.046875 6.40625 -4.609375 C 6.789062 -4.171875 7.242188 -3.832031 7.765625 -3.59375 C 8.285156 -3.351562 8.84375 -3.234375 9.4375 -3.234375 C 10.039062 -3.234375 10.601562 -3.351562 11.125 -3.59375 C 11.644531 -3.832031 12.097656 -4.171875 12.484375 -4.609375 C 12.867188 -5.046875 13.171875 -5.566406 13.390625 -6.171875 C 13.609375 -6.773438 13.71875 -7.441406 13.71875 -8.171875 C 13.71875 -8.878906 13.609375 -9.53125 13.390625 -10.125 C 13.171875 -10.726562 12.867188 -11.25 12.484375 -11.6875 C 12.097656 -12.125 11.644531 -12.460938 11.125 -12.703125 C 10.601562 -12.941406 10.039062 -13.0625 9.4375 -13.0625 C 8.84375 -13.0625 8.285156 -12.9375 7.765625 -12.6875 C 7.242188 -12.4375 6.789062 -12.09375 6.40625 -11.65625 C 6.019531 -11.21875 5.71875 -10.695312 5.5 -10.09375 C 5.28125 -9.5 5.171875 -8.847656 5.171875 -8.140625 Z M 5.171875 -8.140625 "/></g></g></g><g fill="#ffffff" fill-opacity="1"><g transform="translate(47.622855, 29.703925)"><g><path d="M 13.0625 0 L 8.328125 -7.078125 L 6.078125 -4.859375 L 6.078125 0 L 1.90625 0 L 1.90625 -22.75 L 6.078125 -22.75 L 6.078125 -8.953125 L 12.625 -16.296875 L 17.078125 -16.296875 L 11 -9.375 L 17.515625 0 Z M 13.0625 0 "/></g></g></g><g fill="#ffffff" fill-opacity="1"><g transform="translate(65.014389, 29.703925)"><g/></g></g><g fill="#ffffff" fill-opacity="1"><g transform="translate(72.494364, 29.703925)"><g/></g></g><g fill="#ffffff" fill-opacity="1"><g transform="translate(79.978924, 29.703925)"><g><path d="M 15.703125 -17.984375 C 15.085938 -18.691406 14.257812 -19.265625 13.21875 -19.703125 C 12.175781 -20.140625 10.988281 -20.359375 9.65625 -20.359375 C 7.707031 -20.359375 6.285156 -19.988281 5.390625 -19.25 C 4.492188 -18.507812 4.046875 -17.503906 4.046875 -16.234375 C 4.046875 -15.578125 4.164062 -15.035156 4.40625 -14.609375 C 4.644531 -14.179688 5.015625 -13.8125 5.515625 -13.5 C 6.015625 -13.1875 6.65625 -12.914062 7.4375 -12.6875 C 8.21875 -12.457031 9.132812 -12.226562 10.1875 -12 C 11.375 -11.75 12.441406 -11.46875 13.390625 -11.15625 C 14.335938 -10.84375 15.140625 -10.453125 15.796875 -9.984375 C 16.460938 -9.523438 16.972656 -8.960938 17.328125 -8.296875 C 17.679688 -7.628906 17.859375 -6.796875 17.859375 -5.796875 C 17.859375 -4.773438 17.660156 -3.890625 17.265625 -3.140625 C 16.867188 -2.398438 16.316406 -1.78125 15.609375 -1.28125 C 14.910156 -0.78125 14.070312 -0.410156 13.09375 -0.171875 C 12.113281 0.0664062 11.039062 0.1875 9.875 0.1875 C 6.445312 0.1875 3.488281 -0.882812 1 -3.03125 L 2.09375 -4.796875 C 2.488281 -4.378906 2.957031 -3.984375 3.5 -3.609375 C 4.050781 -3.242188 4.664062 -2.921875 5.34375 -2.640625 C 6.019531 -2.359375 6.742188 -2.140625 7.515625 -1.984375 C 8.285156 -1.828125 9.09375 -1.75 9.9375 -1.75 C 11.707031 -1.75 13.085938 -2.0625 14.078125 -2.6875 C 15.066406 -3.320312 15.5625 -4.285156 15.5625 -5.578125 C 15.5625 -6.265625 15.421875 -6.84375 15.140625 -7.3125 C 14.859375 -7.78125 14.4375 -8.1875 13.875 -8.53125 C 13.3125 -8.875 12.613281 -9.164062 11.78125 -9.40625 C 10.945312 -9.65625 9.984375 -9.90625 8.890625 -10.15625 C 7.722656 -10.425781 6.703125 -10.707031 5.828125 -11 C 4.953125 -11.289062 4.210938 -11.65625 3.609375 -12.09375 C 3.015625 -12.53125 2.566406 -13.054688 2.265625 -13.671875 C 1.960938 -14.285156 1.8125 -15.035156 1.8125 -15.921875 C 1.8125 -16.941406 2.003906 -17.851562 2.390625 -18.65625 C 2.773438 -19.457031 3.316406 -20.125 4.015625 -20.65625 C 4.722656 -21.1875 5.554688 -21.585938 6.515625 -21.859375 C 7.472656 -22.140625 8.53125 -22.28125 9.6875 -22.28125 C 11.164062 -22.28125 12.484375 -22.054688 13.640625 -21.609375 C 14.796875 -21.171875 15.835938 -20.546875 16.765625 -19.734375 Z M 15.703125 -17.984375 "/></g></g></g><g fill="#ffffff" fill-opacity="1"><g transform="translate(98.897023, 29.703925)"><g><path d="M 6.421875 0.3125 C 5.648438 0.3125 4.9375 0.179688 4.28125 -0.078125 C 3.625 -0.335938 3.050781 -0.695312 2.5625 -1.15625 C 2.082031 -1.613281 1.707031 -2.144531 1.4375 -2.75 C 1.164062 -3.363281 1.03125 -4.023438 1.03125 -4.734375 C 1.03125 -5.441406 1.195312 -6.097656 1.53125 -6.703125 C 1.863281 -7.304688 2.328125 -7.828125 2.921875 -8.265625 C 3.523438 -8.703125 4.242188 -9.035156 5.078125 -9.265625 C 5.910156 -9.503906 6.828125 -9.625 7.828125 -9.625 C 8.660156 -9.625 9.5 -9.550781 10.34375 -9.40625 C 11.195312 -9.269531 11.957031 -9.066406 12.625 -8.796875 L 12.625 -10.25 C 12.625 -11.6875 12.21875 -12.828125 11.40625 -13.671875 C 10.59375 -14.515625 9.472656 -14.9375 8.046875 -14.9375 C 7.210938 -14.9375 6.359375 -14.769531 5.484375 -14.4375 C 4.609375 -14.101562 3.726562 -13.625 2.84375 -13 L 2.09375 -14.40625 C 4.1875 -15.8125 6.222656 -16.515625 8.203125 -16.515625 C 10.234375 -16.515625 11.832031 -15.941406 13 -14.796875 C 14.164062 -13.660156 14.75 -12.082031 14.75 -10.0625 L 14.75 -2.75 C 14.75 -2.164062 15.007812 -1.875 15.53125 -1.875 L 15.53125 0 C 15.175781 0.0625 14.90625 0.09375 14.71875 0.09375 C 14.175781 0.09375 13.753906 -0.0390625 13.453125 -0.3125 C 13.148438 -0.582031 12.988281 -0.957031 12.96875 -1.4375 L 12.90625 -2.71875 C 12.15625 -1.738281 11.210938 -0.988281 10.078125 -0.46875 C 8.953125 0.0507812 7.734375 0.3125 6.421875 0.3125 Z M 6.921875 -1.3125 C 8.023438 -1.3125 9.035156 -1.519531 9.953125 -1.9375 C 10.878906 -2.351562 11.582031 -2.898438 12.0625 -3.578125 C 12.25 -3.765625 12.390625 -3.96875 12.484375 -4.1875 C 12.578125 -4.40625 12.625 -4.609375 12.625 -4.796875 L 12.625 -7.453125 C 11.914062 -7.722656 11.179688 -7.929688 10.421875 -8.078125 C 9.671875 -8.222656 8.898438 -8.296875 8.109375 -8.296875 C 6.609375 -8.296875 5.390625 -7.984375 4.453125 -7.359375 C 3.523438 -6.734375 3.0625 -5.910156 3.0625 -4.890625 C 3.0625 -4.390625 3.15625 -3.921875 3.34375 -3.484375 C 3.539062 -3.054688 3.8125 -2.679688 4.15625 -2.359375 C 4.5 -2.035156 4.910156 -1.78125 5.390625 -1.59375 C 5.867188 -1.40625 6.378906 -1.3125 6.921875 -1.3125 Z M 6.921875 -1.3125 "/></g></g></g><g fill="#ffffff" fill-opacity="1"><g transform="translate(115.882803, 29.703925)"><g><path d="M 13.9375 0 L 7.953125 -8.328125 L 4.453125 -5.078125 L 4.453125 0 L 2.34375 0 L 2.34375 -22.75 L 4.453125 -22.75 L 4.453125 -7.296875 L 13.59375 -16.203125 L 15.984375 -16.203125 L 9.34375 -9.5625 L 16.234375 0 Z M 13.9375 0 "/></g></g></g><g fill="#ffffff" fill-opacity="1"><g transform="translate(132.401076, 29.703925)"><g><path d="M 6.421875 0.3125 C 5.648438 0.3125 4.9375 0.179688 4.28125 -0.078125 C 3.625 -0.335938 3.050781 -0.695312 2.5625 -1.15625 C 2.082031 -1.613281 1.707031 -2.144531 1.4375 -2.75 C 1.164062 -3.363281 1.03125 -4.023438 1.03125 -4.734375 C 1.03125 -5.441406 1.195312 -6.097656 1.53125 -6.703125 C 1.863281 -7.304688 2.328125 -7.828125 2.921875 -8.265625 C 3.523438 -8.703125 4.242188 -9.035156 5.078125 -9.265625 C 5.910156 -9.503906 6.828125 -9.625 7.828125 -9.625 C 8.660156 -9.625 9.5 -9.550781 10.34375 -9.40625 C 11.195312 -9.269531 11.957031 -9.066406 12.625 -8.796875 L 12.625 -10.25 C 12.625 -11.6875 12.21875 -12.828125 11.40625 -13.671875 C 10.59375 -14.515625 9.472656 -14.9375 8.046875 -14.9375 C 7.210938 -14.9375 6.359375 -14.769531 5.484375 -14.4375 C 4.609375 -14.101562 3.726562 -13.625 2.84375 -13 L 2.09375 -14.40625 C 4.1875 -15.8125 6.222656 -16.515625 8.203125 -16.515625 C 10.234375 -16.515625 11.832031 -15.941406 13 -14.796875 C 14.164062 -13.660156 14.75 -12.082031 14.75 -10.0625 L 14.75 -2.75 C 14.75 -2.164062 15.007812 -1.875 15.53125 -1.875 L 15.53125 0 C 15.175781 0.0625 14.90625 0.09375 14.71875 0.09375 C 14.175781 0.09375 13.753906 -0.0390625 13.453125 -0.3125 C 13.148438 -0.582031 12.988281 -0.957031 12.96875 -1.4375 L 12.90625 -2.71875 C 12.15625 -1.738281 11.210938 -0.988281 10.078125 -0.46875 C 8.953125 0.0507812 7.734375 0.3125 6.421875 0.3125 Z M 6.921875 -1.3125 C 8.023438 -1.3125 9.035156 -1.519531 9.953125 -1.9375 C 10.878906 -2.351562 11.582031 -2.898438 12.0625 -3.578125 C 12.25 -3.765625 12.390625 -3.96875 12.484375 -4.1875 C 12.578125 -4.40625 12.625 -4.609375 12.625 -4.796875 L 12.625 -7.453125 C 11.914062 -7.722656 11.179688 -7.929688 10.421875 -8.078125 C 9.671875 -8.222656 8.898438 -8.296875 8.109375 -8.296875 C 6.609375 -8.296875 5.390625 -7.984375 4.453125 -7.359375 C 3.523438 -6.734375 3.0625 -5.910156 3.0625 -4.890625 C 3.0625 -4.390625 3.15625 -3.921875 3.34375 -3.484375 C 3.539062 -3.054688 3.8125 -2.679688 4.15625 -2.359375 C 4.5 -2.035156 4.910156 -1.78125 5.390625 -1.59375 C 5.867188 -1.40625 6.378906 -1.3125 6.921875 -1.3125 Z M 6.921875 -1.3125 "/></g></g></g><g fill="#ffffff" fill-opacity="1"><g transform="translate(149.389385, 29.703925)"><g/></g></g><g clip-path="url(#407bbb5491)"><g clip-path="url(#6f6e020cc7)"><path fill="#f13024" d="M 63.664062 2.589844 L 76.246094 2.589844 L 76.246094 14.730469 L 63.664062 14.730469 Z M 63.664062 2.589844 " fill-opacity="1" fill-rule="nonzero"/></g></g><g clip-path="url(#88e9c5ac31)"><g clip-path="url(#1dbf4fca79)"><path fill="#0cc7ab" d="M 148.59375 4.375 L 158.558594 4.375 L 158.558594 13.988281 L 148.59375 13.988281 Z M 148.59375 4.375 " fill-opacity="1" fill-rule="nonzero"/></g></g><g clip-path="url(#31d1726238)"><path fill="#ffffff" d="M 67.992188 13.25 L 71.917969 13.25 L 71.917969 29.847656 L 67.992188 29.847656 Z M 67.992188 13.25 " fill-opacity="1" fill-rule="nonzero"/></g><path stroke-linecap="butt" transform="matrix(0.00000000129177, 0.740132, -0.740132, 0.00000000129177, 154.683262, 13.560725)" fill="none" stroke-linejoin="miter" d="M 0.00239811 1.498441 L 22.010732 1.498441 " stroke="#ffffff" stroke-width="3" stroke-opacity="1" stroke-miterlimit="4"/></svg>
